<?xml version="1.0" encoding="utf-8"?>
<!-- Generator: Adobe Illustrator 26.0.1, SVG Export Plug-In . SVG Version: 6.00 Build 0)  -->
<svg version="1.1" id="Calque_1" xmlns="http://www.w3.org/2000/svg" xmlns:xlink="http://www.w3.org/1999/xlink" x="0px" y="0px"
	 viewBox="0 0 103.7 21.3" style="enable-background:new 0 0 103.7 21.3;" xml:space="preserve">
<style type="text/css">
	.st0{display:none;}
	.st1{display:inline;}
	.st2{fill:#EF460F;}
	.st3{display:inline;fill:#0C6299;}
	.st4{fill:#0C6299;}
	.st5{display:none;fill:none;stroke:#0C6299;stroke-width:6;stroke-miterlimit:10;}
	.st6{display:none;fill:#FFFFFF;}
</style>
<title>Logo MF CONSULTING symbole</title>
<g id="Calque_7">
	<g id="TEXTE" class="st0">
		<path id="I" class="st1" d="M30.8,12.8v2.4h-0.4v-2.4H30.8z"/>
		<path id="N" class="st1" d="M31.3,15.2v-1.7h0.3l0.1,0.2c0.2-0.1,0.4-0.2,0.6-0.2c0.4,0,0.6,0.2,0.6,0.7v1.1h-0.4v-1.1
			c0-0.2-0.1-0.3-0.3-0.3c-0.2,0-0.4,0.1-0.5,0.2v1.2L31.3,15.2z"/>
		<path id="G" class="st1" d="M35,15.2c0,0.4-0.3,0.6-0.9,0.6c-0.2,0-0.4,0-0.6-0.1v-0.3c0.2,0.1,0.4,0.1,0.6,0.1
			c0.3,0,0.5-0.1,0.5-0.4c-0.1,0.1-0.3,0.1-0.4,0.1c-0.6,0-0.8-0.3-0.8-0.9c0-0.6,0.3-0.9,1-0.9c0.2,0,0.5,0,0.7,0.1V15.2z
			 M34.5,13.9c-0.1,0-0.2,0-0.3,0c-0.3,0-0.5,0.2-0.5,0.5s0.1,0.5,0.4,0.5c0.1,0,0.3,0,0.4-0.1V13.9z"/>
		<path id="E" class="st1" d="M36.8,14.5h-1.1c0,0.2,0.2,0.4,0.6,0.4c0.2,0,0.4,0,0.5-0.1v0.3c-0.2,0-0.4,0.1-0.6,0.1
			c-0.6,0-1-0.3-1-0.9c0-0.6,0.3-0.9,0.9-0.9S37,13.8,36.8,14.5z M35.7,14.2h0.7c0-0.2-0.1-0.4-0.3-0.4
			C35.9,13.8,35.7,13.9,35.7,14.2L35.7,14.2z M36.4,12.7V13l-0.7,0.2v-0.3L36.4,12.7z"/>
		<path id="N_1_" class="st1" d="M37.2,15.2v-1.7h0.3l0.1,0.2c0.2-0.1,0.4-0.2,0.6-0.2c0.4,0,0.6,0.2,0.6,0.7v1.1h-0.4v-1.1
			c0-0.2-0.1-0.3-0.3-0.3c-0.2,0-0.3,0.1-0.5,0.2v1.2H37.2z"/>
		<path id="I_1_" class="st1" d="M39.7,12.8v0.3h-0.4v-0.3H39.7z M39.7,13.5v1.7h-0.4v-1.7L39.7,13.5z"/>
		<path id="E_1_" class="st1" d="M41.6,14.5h-1.1c0,0.2,0.2,0.4,0.6,0.4c0.2,0,0.4,0,0.5-0.1v0.3c-0.2,0-0.4,0.1-0.6,0.1
			c-0.6,0-1-0.3-1-0.9c0-0.6,0.3-0.9,0.9-0.9C41.4,13.5,41.7,13.8,41.6,14.5z M40.4,14.2h0.7c0-0.2-0.1-0.4-0.3-0.4
			C40.6,13.8,40.4,13.9,40.4,14.2z"/>
		<path id="R" class="st1" d="M41.9,15.2v-1.7h0.3l0.1,0.2c0.1-0.1,0.3-0.2,0.5-0.2v0.4c-0.2,0-0.3,0.1-0.4,0.2v1.2H41.9z"/>
		<path id="I_2_" class="st1" d="M43.5,12.8v0.3H43v-0.3H43.5z M43.5,13.5v1.7H43v-1.7L43.5,13.5z"/>
		<path id="E_2_" class="st1" d="M45.4,14.5h-1.1c0,0.2,0.2,0.4,0.6,0.4c0.2,0,0.4,0,0.5-0.1v0.3c-0.2,0-0.4,0.1-0.6,0.1
			c-0.6,0-1-0.3-1-0.9c0-0.6,0.3-0.9,0.9-0.9C45.2,13.5,45.5,13.8,45.4,14.5z M44.2,14.2H45c0-0.3-0.1-0.4-0.3-0.4
			C44.4,13.8,44.2,13.9,44.2,14.2L44.2,14.2z"/>
		<path id="C" class="st1" d="M48.2,15.1c-0.2,0.1-0.5,0.1-0.7,0.1c-0.9,0-1.3-0.4-1.3-1.2c0-0.8,0.4-1.2,1.3-1.2
			c0.2,0,0.5,0,0.7,0.1v0.4c-0.2-0.1-0.4-0.1-0.7-0.1c-0.6,0-0.9,0.3-0.9,0.8c0,0.6,0.3,0.9,0.9,0.9c0.2,0,0.5,0,0.7-0.1V15.1z"/>
		<path id="O" class="st1" d="M48.5,14.3c0-0.6,0.3-0.9,0.9-0.9c0.6,0,0.9,0.3,0.9,0.9c0,0.6-0.3,0.9-0.9,0.9
			C48.8,15.2,48.5,14.9,48.5,14.3z M49.4,14.9c0.3,0,0.4-0.2,0.4-0.5c0-0.4-0.1-0.5-0.4-0.5s-0.4,0.2-0.4,0.5
			C48.9,14.7,49.1,14.9,49.4,14.9L49.4,14.9z"/>
		<path id="N_2_" class="st1" d="M50.6,15.2v-1.7h0.3l0.1,0.2c0.2-0.1,0.4-0.2,0.6-0.2c0.4,0,0.6,0.2,0.6,0.7v1.1h-0.4v-1.1
			c0-0.2-0.1-0.3-0.3-0.3c-0.2,0-0.3,0.1-0.5,0.2v1.2H50.6z"/>
		<path id="S" class="st1" d="M52.6,15.1v-0.4c0.2,0.1,0.4,0.1,0.7,0.1c0.2,0,0.3-0.1,0.3-0.2s-0.1-0.2-0.2-0.2h-0.3
			c-0.4,0-0.5-0.2-0.5-0.5c0-0.4,0.3-0.6,0.8-0.6c0.2,0,0.4,0,0.6,0.1v0.4c-0.2-0.1-0.4-0.1-0.6-0.1c-0.2,0-0.4,0.1-0.4,0.2
			s0.1,0.2,0.2,0.2h0.3c0.4,0,0.6,0.2,0.6,0.5c0,0.4-0.2,0.5-0.7,0.5C53.1,15.2,52.8,15.2,52.6,15.1z"/>
		<path id="E_3_" class="st1" d="M55.8,14.5h-1.1c0,0.2,0.2,0.4,0.6,0.4c0.2,0,0.4,0,0.5-0.1v0.3c-0.2,0-0.4,0.1-0.6,0.1
			c-0.6,0-0.9-0.3-0.9-0.9c0-0.6,0.3-0.9,0.9-0.9S55.9,13.8,55.8,14.5z M54.7,14.2h0.7c0-0.3-0.1-0.4-0.3-0.4
			C54.8,13.8,54.7,13.9,54.7,14.2z"/>
		<path id="I_3_" class="st1" d="M56.6,12.8v0.3h-0.4v-0.3H56.6z M56.6,13.5v1.7h-0.4v-1.7L56.6,13.5z"/>
		<path id="L" class="st1" d="M57.4,12.8v2.4H57v-2.4H57.4z"/>
		<path id="P" class="st1" d="M58.5,15.2v-2.4h1.1c0.5,0,0.7,0.2,0.7,0.6c0,0.5-0.3,0.8-1,0.9l-0.1-0.4c0.4-0.1,0.6-0.2,0.6-0.5
			c0-0.2-0.1-0.2-0.2-0.2h-0.6v2L58.5,15.2z"/>
		<path id="R_1_" class="st1" d="M60.5,15.2v-1.7h0.3l0.1,0.2c0.1-0.1,0.3-0.2,0.5-0.2v0.4c-0.2,0-0.3,0.1-0.4,0.2v1.2H60.5z"/>
		<path id="O_1_" class="st1" d="M61.5,14.3c0-0.6,0.3-0.9,0.9-0.9c0.6,0,0.9,0.3,0.9,0.9c0,0.6-0.3,0.9-0.9,0.9
			C61.8,15.2,61.5,14.9,61.5,14.3z M62.4,14.9c0.3,0,0.4-0.2,0.4-0.5c0-0.4-0.1-0.5-0.4-0.5S62,14,62,14.3
			C62,14.7,62.1,14.9,62.4,14.9z"/>
		<path id="D" class="st1" d="M65.2,15.1c-0.3,0.1-0.5,0.1-0.8,0.1c-0.6,0-0.9-0.3-0.9-0.9c0-0.6,0.3-0.8,0.8-0.8
			c0.1,0,0.3,0,0.4,0.1v-0.7h0.4V15.1z M64.8,13.9c-0.1-0.1-0.3-0.1-0.4-0.1c-0.3,0-0.4,0.2-0.4,0.5c0,0.4,0.1,0.5,0.4,0.5
			c0.1,0,0.3,0,0.4-0.1V13.9z"/>
		<path id="U" class="st1" d="M67.3,13.5v1.7h-0.3L66.9,15c-0.2,0.1-0.4,0.2-0.6,0.2c-0.4,0-0.6-0.2-0.6-0.7v-1.1h0.4v1.1
			c0,0.2,0.1,0.3,0.3,0.3c0.2,0,0.3-0.1,0.5-0.2v-1.2L67.3,13.5z"/>
		<path id="C_1_" class="st1" d="M69,15.2c-0.2,0-0.3,0.1-0.5,0.1c-0.6,0-1-0.3-1-0.9c0-0.6,0.3-0.8,1-0.8c0.2,0,0.3,0,0.5,0.1v0.3
			c-0.1,0-0.3-0.1-0.5,0c-0.4,0-0.6,0.2-0.6,0.5c0,0.4,0.2,0.6,0.6,0.6c0.2,0,0.3,0,0.5-0.1V15.2z"/>
		<path id="T" class="st1" d="M69.3,13.2h0.3l0.1,0.3h0.4v0.4h-0.4v0.8c0,0.2,0.1,0.2,0.2,0.2h0.1v0.3h-0.4c-0.3,0-0.4-0.2-0.4-0.5
			L69.3,13.2z"/>
		<path id="I_4_" class="st1" d="M70.9,12.8v0.3h-0.4v-0.3H70.9z M70.9,13.5v1.7h-0.4v-1.7L70.9,13.5z"/>
		<path id="O_2_" class="st1" d="M71.2,14.3c0-0.6,0.3-0.9,0.9-0.9c0.6,0,0.9,0.3,0.9,0.9c0,0.6-0.3,0.9-0.9,0.9
			S71.2,14.9,71.2,14.3z M72.1,14.9c0.3,0,0.4-0.2,0.4-0.5c0-0.4-0.1-0.5-0.4-0.5c-0.3,0-0.4,0.2-0.4,0.5
			C71.6,14.7,71.8,14.9,72.1,14.9z"/>
		<path id="N_3_" class="st1" d="M73.3,15.2v-1.7h0.3l0.1,0.2c0.2-0.1,0.4-0.2,0.6-0.2c0.4,0,0.6,0.2,0.6,0.7v1.1h-0.4v-1.1
			c0-0.2-0.1-0.3-0.3-0.3c-0.2,0-0.3,0.1-0.5,0.2v1.2H73.3z"/>
	</g>
	<path class="st2" d="M30.4,10.9V4.3h1.3l2.3,5.1l2.2-5.1h1.2v6.7h-1.1V6.3l-1.8,4.6h-1.1l-1.8-4.6v4.6H30.4z"/>
	<path class="st2" d="M43.1,4.3v1.1H40V7h3v1.1h-3v2.8h-1.2V4.3L43.1,4.3z"/>
	<g id="Consulting" class="st0">
		<path class="st3" d="M49.8,10.6c-0.6,0.2-1.3,0.3-2,0.3c-2.4,0-3.6-1.2-3.6-3.5c0-2.2,1.2-3.3,3.6-3.3c0.7,0,1.3,0.1,2,0.3v1.1
			c-0.6-0.3-1.2-0.4-1.9-0.4c-1.6,0-2.4,0.7-2.4,2.2c0,1.6,0.8,2.4,2.4,2.4c0.6,0,1.3-0.1,1.9-0.4L49.8,10.6z"/>
		<path class="st3" d="M50.5,8.5C50.5,6.8,51.3,6,53,6s2.5,0.8,2.5,2.5c0,1.7-0.8,2.5-2.5,2.5C51.3,11,50.5,10.1,50.5,8.5z M53,10
			c0.8,0,1.2-0.5,1.2-1.5c0-1-0.4-1.5-1.2-1.5c-0.8,0-1.2,0.5-1.2,1.5C51.8,9.5,52.2,10,53,10z"/>
		<path class="st3" d="M56.3,10.9V6h1l0.2,0.6C58,6.2,58.6,6,59.2,6c1.1,0,1.7,0.6,1.7,1.8v3.1h-1.2V7.8c0-0.5-0.3-0.8-0.8-0.8
			c-0.4,0-0.9,0.2-1.3,0.6v3.3H56.3z"/>
		<path class="st3" d="M62.1,10.7v-1C62.7,9.9,63.3,10,64,10c0.5,0,0.8-0.2,0.8-0.5c0-0.3-0.2-0.5-0.5-0.5h-0.9
			c-1,0-1.5-0.5-1.5-1.5c0-1,0.7-1.5,2.2-1.5c0.6,0,1.2,0.1,1.7,0.3v1C65.2,7.1,64.6,7,64,7c-0.7,0-1,0.2-1,0.5
			C63,7.8,63.2,8,63.6,8h0.8C65.4,8,66,8.4,66,9.4c0,1-0.7,1.5-2.1,1.5C63.3,11,62.7,10.9,62.1,10.7z"/>
		<path class="st3" d="M71.4,6v4.9h-1l-0.1-0.6c-0.6,0.4-1.2,0.6-1.8,0.6c-1.1,0-1.7-0.6-1.7-1.8V6h1.2v3.1c0,0.5,0.3,0.8,0.8,0.8
			c0.4,0,0.9-0.2,1.3-0.6V6H71.4z"/>
		<path class="st3" d="M73.8,4.3v6.7h-1.2V4.3L73.8,4.3z"/>
		<path class="st3" d="M75,5.2h0.9L76.1,6h1.1v1h-1v2.2c0,0.5,0.2,0.7,0.6,0.7h0.4v1h-1c-0.8,0-1.2-0.4-1.2-1.3V5.2z"/>
		<path class="st3" d="M79.4,4.3v1h-1.2v-1H79.4z M79.4,6v4.9h-1.2V6H79.4z"/>
		<path class="st3" d="M80.5,10.9V6h1l0.2,0.6C82.3,6.2,82.8,6,83.4,6c1.1,0,1.7,0.6,1.7,1.8v3.1h-1.2V7.8c0-0.5-0.3-0.8-0.8-0.8
			c-0.4,0-0.9,0.2-1.3,0.6v3.3H80.5z"/>
		<path class="st3" d="M90.8,10.9c0,1.2-0.9,1.8-2.6,1.8c-0.5,0-1.1-0.1-1.6-0.2v-1c0.5,0.2,1.1,0.2,1.6,0.2c0.9,0,1.4-0.4,1.4-1.1
			c-0.4,0.2-0.8,0.2-1.2,0.2c-1.5,0-2.3-0.8-2.3-2.4C86.1,6.8,87,6,88.7,6c0.7,0,1.4,0.1,2.1,0.2L90.8,10.9z M89.6,7.1
			c-0.3-0.1-0.6-0.1-1-0.1c-0.9,0-1.3,0.5-1.3,1.4c0,0.9,0.4,1.4,1.1,1.4c0.4,0,0.8-0.1,1.2-0.3L89.6,7.1z"/>
	</g>
	<g id="Technologies">
		<path class="st4" d="M49.3,4.3v1.1h-1.9v5.6h-1.2V5.3h-1.9V4.3H49.3z"/>
		<path class="st4" d="M51.3,6c1.5,0,2.2,0.8,2.2,2.3c0,0.2,0,0.4,0,0.6h-3.3c0,0.7,0.5,1,1.5,1c0.5,0,1,0,1.5-0.1v1
			c-0.4,0.1-1,0.1-1.6,0.1c-1.8,0-2.7-0.8-2.7-2.5C49,6.8,49.8,6,51.3,6z M50.2,8.1h2.1v0c0-0.7-0.3-1-1-1C50.6,7,50.3,7.4,50.2,8.1
			z"/>
		<path class="st4" d="M58.1,10.8c-0.4,0.1-0.8,0.1-1.3,0.1c-1.8,0-2.6-0.8-2.6-2.5c0-1.6,0.9-2.4,2.6-2.4c0.4,0,0.9,0,1.3,0.1v1
			C57.7,7.1,57.3,7,56.9,7c-1,0-1.5,0.5-1.5,1.4c0,1,0.5,1.6,1.5,1.6c0.4,0,0.8,0,1.2-0.1V10.8z"/>
		<path class="st4" d="M58.9,10.9V4.3h1.2v2.4C60.6,6.3,61.1,6,61.7,6c1.2,0,1.8,0.6,1.8,1.8v3.1h-1.2V7.9c0-0.5-0.3-0.8-0.8-0.8
			c-0.4,0-0.8,0.2-1.2,0.5v3.4H58.9z"/>
		<path class="st4" d="M64.6,10.9V6h1l0.2,0.7c0.5-0.5,1-0.7,1.6-0.7c1.2,0,1.8,0.6,1.8,1.8v3.1h-1.2V7.9C67.8,7.3,67.6,7,67,7
			c-0.4,0-0.8,0.2-1.2,0.5v3.4H64.6z"/>
		<path class="st4" d="M70,8.5C70,6.8,70.8,6,72.5,6c1.6,0,2.4,0.8,2.4,2.5c0,1.6-0.8,2.5-2.4,2.5C70.9,10.9,70,10.1,70,8.5z
			 M72.5,10c0.8,0,1.2-0.5,1.2-1.5c0-1-0.4-1.5-1.2-1.5c-0.8,0-1.2,0.5-1.2,1.5C71.3,9.5,71.7,10,72.5,10z"/>
		<path class="st4" d="M77.1,4.3v6.7h-1.2V4.3H77.1z"/>
		<path class="st4" d="M78,8.5C78,6.8,78.9,6,80.5,6c1.6,0,2.4,0.8,2.4,2.5c0,1.6-0.8,2.5-2.4,2.5C78.9,10.9,78.1,10.1,78,8.5z
			 M80.5,10c0.8,0,1.2-0.5,1.2-1.5c0-1-0.4-1.5-1.2-1.5c-0.8,0-1.2,0.5-1.2,1.5C79.3,9.5,79.7,10,80.5,10z"/>
		<path class="st4" d="M88.3,10.6c0,1.4-0.9,2.1-2.6,2.1c-0.6,0-1.1-0.1-1.6-0.2v-1c0.5,0.2,1,0.2,1.6,0.2c0.9,0,1.3-0.4,1.3-1.1
			c-0.4,0.2-0.8,0.2-1.2,0.2c-1.5,0-2.2-0.8-2.2-2.4c0-1.6,0.9-2.4,2.6-2.4c0.6,0,1.3,0.1,2.1,0.2V10.6z M87,7.2
			C86.8,7.1,86.5,7,86.2,7c-0.9,0-1.3,0.5-1.3,1.4c0,0.9,0.4,1.4,1.1,1.4c0.4,0,0.7-0.1,1-0.3V7.2z"/>
		<path class="st4" d="M90.7,4.3v1h-1.2v-1H90.7z M90.7,6v4.9h-1.2V6H90.7z"/>
		<path class="st4" d="M94,6c1.5,0,2.2,0.8,2.2,2.3c0,0.2,0,0.4,0,0.6h-3.3c0,0.7,0.5,1,1.5,1c0.5,0,1,0,1.5-0.1v1
			c-0.4,0.1-1,0.1-1.6,0.1c-1.8,0-2.7-0.8-2.7-2.5C91.6,6.8,92.4,6,94,6z M92.9,8.1H95v0c0-0.7-0.3-1-1-1C93.3,7,92.9,7.4,92.9,8.1z
			"/>
		<path class="st4" d="M97.1,10.7v-1C97.7,9.9,98.3,10,99,10c0.5,0,0.8-0.2,0.8-0.5c0-0.3-0.2-0.5-0.5-0.5h-0.9
			c-1,0-1.5-0.5-1.5-1.5c0-1,0.7-1.5,2.2-1.5c0.6,0,1.2,0.1,1.8,0.3v1C100.3,7.1,99.7,7,99.1,7c-0.7,0-1,0.2-1,0.5
			c0,0.3,0.2,0.5,0.6,0.5h0.8c1.1,0,1.6,0.5,1.6,1.5c0,1-0.7,1.5-2.1,1.5C98.3,11,97.7,10.9,97.1,10.7z"/>
	</g>
	<line class="st5" x1="28.6" y1="1.9" x2="28.6" y2="19.2"/>
</g>
<g id="nouveau_logo">
	<g id="Calque_2_-_copie">
		<circle class="st4" cx="13" cy="15.5" r="1.3"/>
		<path class="st2" d="M19.7,2c-0.7,0-1.4,0.5-1.4,1.3c0,0,0,0,0,0c0,0.5,0.2,0.8,0.6,1.2l0,0c0,0,0.9,0.8,1.1,1.3
			c0.1,0.3,0.2,0.7,0.2,1c0.1,0.6-0.1,1.2-0.6,1.7c0,0-0.1,0.1-0.1,0.1c-0.8,0.8-1.9,0.7-1.9,0.7s-0.6,0-1.5-0.8L16,8.5
			c0,0-0.1-0.1-0.2-0.1c0,0-0.1,0-0.1,0l0,0l0,0c0,0,0,0,0,0l0,0c0,0-0.1,0.1-0.1,0.1c0,0.1,0,0.1,0.1,0.2l0.1,0.1
			c0.8,0.9,0.8,1.5,0.8,1.5s0.1,1.1-0.7,1.9c0,0-0.1,0.1-0.1,0.1c-0.4,0.4-1.1,0.6-1.7,0.6c-0.4,0-0.7-0.1-1-0.2
			c-0.5-0.2-1.3-1.1-1.3-1.1l0,0C11.3,11.2,11,11,10.5,11c-0.7,0-1.3,0.6-1.3,1.4c0,0.7,0.6,1.3,1.4,1.3c0.2,0,0.5-0.1,0.7-0.2l0,0
			c1-0.5,2.3-0.5,3.3,0.5c1.3,1.3,0.2,3.5,0.2,3.5l0,0c0,0.1,0,0.2,0,0.3c0,0.7,0.7,1.3,1.4,1.3c0,0,0,0,0.1,0
			c0.7-0.1,1.2-0.7,1.2-1.4c0-0.4-0.2-0.7-0.4-1c-0.4-0.4-0.8-0.8-1.2-1.2c-0.4-0.5-0.4-1.4-0.4-1.4s-0.1-0.5,0.7-1.4
			c0.7-0.9,1.8-0.8,1.8-0.8s0.6-0.1,1.6,0.7l0,0c0,0,0.1,0.1,0.2,0.1c0,0,0.1,0,0.1,0l0,0c0,0,0,0,0,0l0,0c0,0,0,0,0,0c0,0,0,0,0,0
			l0,0c0,0,0,0,0,0c0,0,0,0,0,0c0,0,0,0,0,0l0,0c0,0,0,0,0,0c0-0.1,0-0.1-0.1-0.2l0,0c-0.7-1-0.7-1.6-0.7-1.6s0-1.1,0.8-1.8
			c0.9-0.7,1.4-0.7,1.4-0.7s1,0,1.4,0.4c0.5,0.3,0.9,0.7,1.2,1.2c0.2,0.3,0.6,0.4,1,0.4c0.7,0,1.3-0.6,1.3-1.3
			c0-0.7-0.5-1.3-1.3-1.3c-0.1,0-0.2,0-0.3,0l0,0c0,0-2.3,1.1-3.5-0.2c-0.9-1-1-2.3-0.5-3.3l0,0c0.1-0.2,0.2-0.4,0.2-0.7
			C20.9,2.6,20.4,2,19.7,2z"/>
		<circle class="st4" cx="22.7" cy="5.6" r="1.3"/>
	</g>
	<g id="Calque_6_-_copie">
		<path class="st4" d="M26.5,12.8c-0.1,0.7-0.7,1.3-1.4,1.2c-0.2,0-0.5-0.1-0.7-0.2l0,0c-0.8-0.6-2.2-0.6-3.1,0.3l0,0
			c-0.9,1-0.9,2.3-0.3,3.1l0,0c0.1,0.2,0.2,0.4,0.2,0.7c0,0.7-0.6,1.3-1.3,1.4c-0.7,0-1.3-0.5-1.4-1.2c0-0.4,0.2-0.6,0.4-1
			c0.2-0.4,0.6-0.6,0.9-1.2c0.2-0.4,0.4-0.9,0.4-1.3c0-0.5,0.1-0.9,0.3-1.2l0,0c0.3-0.3,0.7-0.3,1.2-0.3c0.4,0,0.9-0.2,1.3-0.4
			c0.6-0.3,0.9-0.6,1.2-0.9c0.3-0.2,0.6-0.4,1-0.4C26,11.4,26.5,12,26.5,12.8C26.5,12.7,26.5,12.8,26.5,12.8z"/>
		<circle class="st6" cx="22.9" cy="15.7" r="2.4"/>
		<circle class="st4" cx="22.8" cy="15.6" r="1.3"/>
	</g>
	<g id="Calque_2_-_copie_3">
		<path class="st4" d="M15.6,1.9c-0.7,0.1-1.3,0.7-1.2,1.4c0,0.2,0.1,0.5,0.2,0.7l0,0c0.6,0.8,0.6,2.2-0.3,3.1l0,0
			C13.3,8,12,8,11.2,7.4l0,0c-0.2-0.1-0.4-0.2-0.7-0.2c-0.7,0-1.4,0.5-1.4,1.3c0,0.7,0.5,1.4,1.3,1.4c0.4,0,0.6-0.2,1-0.4
			c0.4-0.2,0.6-0.6,1.2-0.9c0.4-0.2,0.9-0.4,1.3-0.4c0.5,0,0.9-0.1,1.2-0.3l0,0c0.3-0.3,0.3-0.7,0.3-1.2c0-0.4,0.2-0.9,0.4-1.3
			c0.3-0.6,0.6-0.9,0.9-1.2c0.2-0.3,0.4-0.6,0.4-1C17,2.4,16.4,1.9,15.6,1.9C15.6,1.9,15.6,1.9,15.6,1.9z"/>
		<circle class="st6" cx="12.7" cy="5.5" r="2.4"/>
		<circle class="st4" cx="12.8" cy="5.6" r="1.3"/>
	</g>
	<circle class="st6" cx="14.1" cy="10.7" r="2.4"/>
	<circle class="st6" cx="17.9" cy="6.9" r="2.4"/>
	<circle class="st6" cx="17.8" cy="14.3" r="2.4"/>
	<circle class="st6" cx="21.5" cy="10.6" r="2.4"/>
	<circle class="st4" cx="14.1" cy="10.6" r="1.3"/>
	<circle class="st4" cx="17.9" cy="6.8" r="1.3"/>
	<circle class="st4" cx="21.6" cy="10.5" r="1.3"/>
	<circle class="st4" cx="17.8" cy="14.3" r="1.3"/>
</g>
<g>
	<path d="M31.1,12.9v2.8h-0.4v-2.8H31.1z"/>
	<path d="M31.8,15.7v-2.1h0.2l0.1,0.3c0.2-0.2,0.4-0.3,0.7-0.3c0.5,0,0.8,0.3,0.8,0.8v1.3h-0.4v-1.3c0-0.3-0.2-0.5-0.5-0.5
		c-0.2,0-0.4,0.1-0.6,0.3v1.5H31.8z"/>
	<path d="M35.9,15.7c0,0.5-0.3,0.7-0.9,0.7c-0.3,0-0.5,0-0.7-0.1V16c0.2,0.1,0.4,0.1,0.7,0.1c0.4,0,0.6-0.1,0.6-0.4v-0.1
		c-0.2,0.1-0.3,0.1-0.5,0.1c-0.6,0-1-0.3-1-1c0-0.7,0.3-1,1-1c0.3,0,0.5,0,0.8,0.1V15.7z M35.5,14c-0.1,0-0.3,0-0.5,0
		c-0.4,0-0.7,0.2-0.7,0.7c0,0.5,0.2,0.7,0.6,0.7c0.2,0,0.4,0,0.5-0.1V14z"/>
	<path d="M37.3,13.6c0.6,0,0.9,0.3,0.9,0.9c0,0.1,0,0.2,0,0.3h-1.4c0,0.4,0.2,0.6,0.7,0.6c0.2,0,0.4,0,0.6-0.1v0.3
		c-0.2,0.1-0.4,0.1-0.7,0.1c-0.7,0-1.1-0.3-1.1-1C36.4,13.9,36.7,13.6,37.3,13.6z M36.8,14.4h1.1c0-0.4-0.2-0.5-0.5-0.5
		C37,13.9,36.8,14.1,36.8,14.4z M37.4,12.9h0.5l-0.5,0.5H37L37.4,12.9z"/>
	<path d="M38.7,15.7v-2.1h0.2l0.1,0.3c0.2-0.2,0.4-0.3,0.7-0.3c0.5,0,0.8,0.3,0.8,0.8v1.3h-0.4v-1.3c0-0.3-0.2-0.5-0.5-0.5
		c-0.2,0-0.4,0.1-0.6,0.3v1.5H38.7z"/>
	<path d="M41.9,13.6c0.6,0,0.9,0.3,0.9,0.9c0,0.1,0,0.2,0,0.3h-1.4c0,0.4,0.2,0.6,0.7,0.6c0.2,0,0.4,0,0.6-0.1v0.3
		c-0.2,0.1-0.4,0.1-0.7,0.1c-0.7,0-1.1-0.3-1.1-1C41,13.9,41.3,13.6,41.9,13.6z M41.3,14.4h1.1c0-0.4-0.2-0.5-0.5-0.5
		C41.5,13.9,41.3,14.1,41.3,14.4z"/>
	<path d="M43.3,15.7v-2.1h0.2l0.1,0.3c0.2-0.2,0.4-0.3,0.6-0.3v0.3c-0.2,0-0.4,0.1-0.6,0.3v1.5H43.3z"/>
	<path d="M45,12.9v0.3h-0.4v-0.3H45z M45,13.6v2.1h-0.4v-2.1H45z"/>
	<path d="M46.4,13.6c0.6,0,0.9,0.3,0.9,0.9c0,0.1,0,0.2,0,0.3h-1.4c0,0.4,0.2,0.6,0.7,0.6c0.2,0,0.4,0,0.6-0.1v0.3
		c-0.2,0.1-0.4,0.1-0.7,0.1c-0.7,0-1.1-0.3-1.1-1C45.5,13.9,45.8,13.6,46.4,13.6z M45.9,14.4H47c0-0.4-0.2-0.5-0.5-0.5
		C46.1,13.9,45.9,14.1,45.9,14.4z"/>
	<path d="M50.9,15.6c-0.2,0.1-0.5,0.1-0.8,0.1c-1,0-1.5-0.5-1.5-1.5c0-0.9,0.5-1.4,1.5-1.4c0.3,0,0.5,0,0.8,0.1v0.3
		c-0.2-0.1-0.5-0.1-0.7-0.1c-0.8,0-1.1,0.4-1.1,1.1c0,0.8,0.4,1.2,1.1,1.2c0.3,0,0.5,0,0.7-0.1V15.6z"/>
	<path d="M51.4,14.6c0-0.7,0.3-1,1-1s1,0.3,1,1c0,0.7-0.3,1-1,1C51.7,15.7,51.4,15.3,51.4,14.6z M52.4,15.4c0.4,0,0.6-0.2,0.6-0.7
		c0-0.5-0.2-0.7-0.6-0.7s-0.6,0.2-0.6,0.7C51.8,15.1,52,15.4,52.4,15.4z"/>
	<path d="M53.8,15.7v-2.1h0.2l0.1,0.3c0.2-0.2,0.4-0.3,0.7-0.3c0.5,0,0.8,0.3,0.8,0.8v1.3h-0.4v-1.3c0-0.3-0.2-0.5-0.5-0.5
		c-0.2,0-0.4,0.1-0.6,0.3v1.5H53.8z"/>
	<path d="M56.2,15.6v-0.3c0.2,0.1,0.5,0.1,0.7,0.1c0.3,0,0.5-0.1,0.5-0.3c0-0.2-0.1-0.3-0.3-0.3h-0.3c-0.4,0-0.7-0.2-0.7-0.6
		c0-0.4,0.3-0.6,0.9-0.6c0.2,0,0.5,0,0.7,0.1V14c-0.2-0.1-0.5-0.1-0.7-0.1c-0.3,0-0.5,0.1-0.5,0.3c0,0.2,0.1,0.3,0.3,0.3H57
		c0.5,0,0.7,0.2,0.7,0.6c0,0.4-0.3,0.6-0.9,0.6C56.7,15.7,56.4,15.6,56.2,15.6z"/>
	<path d="M59.1,13.6c0.6,0,0.9,0.3,0.9,0.9c0,0.1,0,0.2,0,0.3h-1.4c0,0.4,0.2,0.6,0.7,0.6c0.2,0,0.4,0,0.6-0.1v0.3
		c-0.2,0.1-0.4,0.1-0.7,0.1c-0.7,0-1.1-0.3-1.1-1C58.1,13.9,58.5,13.6,59.1,13.6z M58.5,14.4h1.1c0-0.4-0.2-0.5-0.5-0.5
		C58.7,13.9,58.5,14.1,58.5,14.4z"/>
	<path d="M60.8,12.9v0.3h-0.4v-0.3H60.8z M60.8,13.6v2.1h-0.4v-2.1H60.8z"/>
	<path d="M61.9,12.9v2.8h-0.4v-2.8H61.9z"/>
	<path d="M63.5,15.7v-2.8h1.1c0.6,0,0.9,0.2,0.9,0.7c0,0.5-0.4,0.9-1.2,1l-0.1-0.3c0.6-0.1,0.9-0.3,0.9-0.7c0-0.3-0.2-0.5-0.5-0.5
		h-0.7v2.5H63.5z"/>
	<path d="M65.9,15.7v-2.1h0.2l0.1,0.3c0.2-0.2,0.4-0.3,0.6-0.3v0.3c-0.2,0-0.4,0.1-0.6,0.3v1.5H65.9z"/>
	<path d="M67.1,14.6c0-0.7,0.3-1,1-1s1,0.3,1,1c0,0.7-0.3,1-1,1C67.5,15.7,67.1,15.3,67.1,14.6z M68.1,15.4c0.4,0,0.6-0.2,0.6-0.7
		c0-0.5-0.2-0.7-0.6-0.7s-0.6,0.2-0.6,0.7C67.5,15.1,67.7,15.4,68.1,15.4z"/>
	<path d="M71.3,15.5c-0.2,0.1-0.6,0.1-0.9,0.1c-0.6,0-0.9-0.4-0.9-1.1c0-0.7,0.3-1,1-1c0.2,0,0.3,0,0.5,0.1v-0.8h0.4V15.5z M70.9,14
		c-0.1-0.1-0.3-0.1-0.5-0.1c-0.4,0-0.6,0.2-0.6,0.7c0,0.5,0.2,0.8,0.6,0.8c0.2,0,0.4,0,0.5-0.1V14z"/>
	<path d="M73.7,13.6v2.1h-0.2l-0.1-0.3c-0.2,0.2-0.5,0.3-0.8,0.3c-0.5,0-0.7-0.3-0.7-0.8v-1.3h0.4v1.3c0,0.3,0.2,0.5,0.5,0.5
		c0.2,0,0.4-0.1,0.6-0.3v-1.5H73.7z"/>
	<path d="M75.8,15.6c-0.2,0-0.4,0.1-0.5,0.1c-0.7,0-1.1-0.4-1.1-1.1c0-0.7,0.4-1,1.1-1c0.2,0,0.4,0,0.5,0.1V14
		c-0.2,0-0.4-0.1-0.6-0.1c-0.5,0-0.7,0.2-0.7,0.7c0,0.5,0.2,0.8,0.7,0.8c0.2,0,0.4,0,0.6-0.1V15.6z"/>
	<path d="M76.2,13.3h0.2l0.1,0.3h0.6v0.3h-0.5v1.2c0,0.2,0.1,0.3,0.2,0.3h0.2v0.3h-0.3c-0.3,0-0.5-0.2-0.5-0.6V13.3z"/>
	<path d="M78,12.9v0.3h-0.4v-0.3H78z M78,13.6v2.1h-0.4v-2.1H78z"/>
	<path d="M78.5,14.6c0-0.7,0.3-1,1-1s1,0.3,1,1c0,0.7-0.3,1-1,1C78.8,15.7,78.5,15.3,78.5,14.6z M79.5,15.4c0.4,0,0.6-0.2,0.6-0.7
		c0-0.5-0.2-0.7-0.6-0.7s-0.6,0.2-0.6,0.7C78.9,15.1,79.1,15.4,79.5,15.4z"/>
	<path d="M80.9,15.7v-2.1h0.2l0.1,0.3c0.2-0.2,0.4-0.3,0.7-0.3c0.5,0,0.8,0.3,0.8,0.8v1.3h-0.4v-1.3c0-0.3-0.2-0.5-0.5-0.5
		c-0.2,0-0.4,0.1-0.6,0.3v1.5H80.9z"/>
</g>
</svg>
