<?xml version="1.0" standalone="no"?>
<!DOCTYPE svg PUBLIC "-//W3C//DTD SVG 20010904//EN"
 "http://www.w3.org/TR/2001/REC-SVG-20010904/DTD/svg10.dtd">
<svg version="1.0" xmlns="http://www.w3.org/2000/svg"
 width="123.000000pt" height="123.000000pt" viewBox="0 0 123.000000 123.000000"
 preserveAspectRatio="xMidYMid meet">
<metadata>
Created by potrace 1.14, written by Peter Selinger 2001-2017
</metadata>
<g transform="translate(0.000000,123.000000) scale(0.100000,-0.100000)"
fill="#000000" stroke="none">
<path d="M453 1098 c-29 -32 -34 -66 -17 -100 47 -92 -6 -206 -105 -224 -25
-5 -52 -1 -91 13 -39 14 -64 17 -86 11 -58 -15 -75 -91 -31 -136 41 -41 80
-33 139 27 40 41 57 51 96 57 26 4 59 13 74 20 26 14 32 26 42 85 7 45 35 88
71 112 43 27 58 70 38 109 -25 52 -94 65 -130 26z"/>
<path d="M713 1110 c-64 -26 -66 -101 -3 -151 73 -59 87 -155 33 -220 -37 -44
-79 -62 -130 -56 -38 4 -56 13 -109 52 -19 13 -31 -3 -16 -23 6 -9 18 -29 26
-43 56 -99 -17 -219 -134 -219 -54 0 -75 12 -131 71 -42 45 -50 49 -80 44 -19
-3 -41 -13 -50 -21 -42 -38 -29 -113 23 -135 26 -10 39 -10 84 6 62 21 110 16
154 -15 61 -43 76 -111 45 -197 -15 -43 -16 -56 -6 -81 24 -57 101 -65 141
-15 32 41 25 69 -30 125 -59 60 -73 99 -57 165 26 102 144 142 235 80 46 -33
75 -28 44 7 -31 34 -42 62 -42 109 0 81 72 152 152 149 53 -2 75 -15 125 -70
35 -39 47 -46 78 -46 29 0 43 7 61 28 66 76 -17 166 -112 121 -71 -33 -165 -2
-200 68 -20 38 -20 91 0 139 22 52 20 82 -8 109 -26 25 -60 32 -93 19z"/>
<path d="M271 999 c-81 -32 -58 -159 28 -159 87 0 115 123 35 156 -18 8 -35
14 -36 13 -2 0 -14 -5 -27 -10z"/>
<path d="M914 986 c-35 -15 -44 -32 -44 -81 0 -57 68 -93 121 -65 54 29 53
117 -1 145 -35 18 -36 18 -76 1z"/>
<path d="M593 909 c-57 -21 -68 -110 -18 -143 59 -39 135 2 135 73 0 48 -68
89 -117 70z"/>
<path d="M325 655 c-35 -34 -33 -78 4 -115 22 -23 35 -28 57 -24 44 8 72 30
79 63 18 81 -82 135 -140 76z"/>
<path d="M832 668 c-25 -7 -37 -18 -48 -43 -34 -82 59 -150 130 -94 48 38 28
126 -32 141 -10 3 -32 1 -50 -4z"/>
<path d="M1033 549 c-11 -4 -33 -24 -49 -44 -28 -37 -79 -65 -120 -65 -59 0
-86 -31 -100 -115 -5 -31 -18 -51 -60 -90 -43 -40 -54 -57 -54 -81 0 -69 88
-110 137 -64 31 28 35 51 18 100 -34 95 -6 178 71 215 39 18 114 15 140 -6 17
-14 65 -14 91 -1 12 7 27 27 33 46 11 34 9 44 -18 84 -12 18 -64 31 -89 21z"/>
<path d="M560 415 c-45 -48 -23 -128 38 -140 81 -15 135 83 77 140 -33 34 -83
34 -115 0z"/>
<path d="M235 335 c-29 -28 -34 -85 -9 -109 24 -24 48 -35 70 -31 10 2 25 4
32 4 20 1 51 61 46 90 -3 14 -16 36 -30 49 -34 29 -78 29 -109 -3z"/>
<path d="M886 329 c-28 -22 -36 -73 -16 -109 14 -27 64 -41 100 -28 36 12 50
35 50 82 0 41 -37 76 -80 76 -15 0 -39 -9 -54 -21z"/>
</g>
</svg>
